# xmcd
#
# Track frame offsets: 
#        150
#        14150
#        26485
#        51296
#        66176
#        79190
#        93827
#        109453
#        120839
#        131745
#        147432
#        164155
#        176157
#
# Disc length: 2551 seconds
#
# Revision: 0
# Processed by: cddbd v1.5.2PL0 Copyright (c) Steve Scherf et al.
# Submitted via: ExactAudioCopy v1.0b4
#
DISCID=bd09f50d
DTITLE=Scott Ellison - Elevator Man
DYEAR=2015
DGENRE=Blues
TTITLE0=Holler For Help
TTITLE1=Arlene
TTITLE2=Behind That Smile
TTITLE3=Fishsticks And Jelly
TTITLE4=Elevator Man
TTITLE5=Jesus Love Me (Baby Why Don't You)
TTITLE6=School Girl
TTITLE7=Put You Down
TTITLE8=Hit It, Get It And Go
TTITLE9=Wear Out Your Welcome
TTITLE10=I Thought I'd Be Gone
TTITLE11=My Little Sheba
TTITLE12=She's On My Trail
EXTD=
EXTT0=
EXTT1=
EXTT2=
EXTT3=
EXTT4=
EXTT5=
EXTT6=
EXTT7=
EXTT8=
EXTT9=
EXTT10=
EXTT11=
EXTT12=
PLAYORDER=
